<svg width="32" viewBox="0 0 512 387" fill="none" xmlns="http://www.w3.org/2000/svg">
  <path d="M497.431 105.709L413.145 17.691L260.012 160.272L247.42 46.1252L11.4471 358.267L191.528 214.484L233.219 354.862L497.431 105.709Z" fill="#FBE205"/>
  <path d="M19.7723 354.122L191.475 214.628L202.985 368.39L493.268 99.8022L451.268 59.3172L244.815 268.838L221.792 138.244L19.7723 354.122Z" fill="#DDB31F"/>
  <path d="M203.576 386.081L182.692 233.122L0 372.421L252.426 16.7565L265.606 140.431L412.396 0L512 103.024L203.576 386.081ZM201.119 196.289L221.422 342.343L482.667 101.9L411.846 28.8093L254.663 179.599L243.213 63.4042L39 333L201.119 196.289Z" fill="black"/>
</svg>
